<svg xmlns="http://www.w3.org/2000/svg" xmlns:xlink="http://www.w3.org/1999/xlink" width="500" zoomAndPan="magnify" viewBox="0 0 375 374.999991" height="500" preserveAspectRatio="xMidYMid meet" version="1.0"><defs><clipPath id="b5a17bf1c5"><path d="M 43 26 L 361.683594 26 L 361.683594 349 L 43 349 Z M 43 26 " clip-rule="nonzero"/></clipPath><clipPath id="7a4caa8c00"><path d="M 13.683594 153 L 51 153 L 51 186 L 13.683594 186 Z M 13.683594 153 " clip-rule="nonzero"/></clipPath></defs><g clip-path="url(#b5a17bf1c5)"><path fill="#69cdfa" d="M 237.882812 126.722656 L 254.773438 165.699219 L 144.34375 26.039062 L 143.5 33.375 L 138.496094 109.34375 L 254.773438 165.699219 C 184.402344 136.25 114.027344 106.800781 43.65625 77.351562 L 102.769531 154.652344 L 231.390625 167.644531 L 152.285156 166.578125 L 188.15625 200.5625 L 232.355469 186.855469 L 168.34375 212.222656 L 178.121094 274.828125 L 178.402344 275.125 L 178.402344 348.957031 L 215.722656 332.714844 L 246.976562 348.230469 L 205.40625 250.792969 L 187.214844 268.980469 L 258.671875 176.089844 L 304.792969 154.65625 L 361.308594 161.148438 L 302.84375 140.363281 L 287.253906 121.523438 Z M 237.882812 126.722656 " fill-opacity="1" fill-rule="evenodd"/></g><path fill="#69cdfa" d="M 30.167969 233.265625 L 61.011719 233.265625 L 61.011719 260.34375 L 30.167969 260.34375 Z M 30.167969 233.265625 " fill-opacity="1" fill-rule="evenodd"/><path fill="#d9d9d9" d="M 55.746094 268.3125 L 92.070312 268.3125 L 92.070312 300.203125 L 55.746094 300.203125 Z M 55.746094 268.3125 " fill-opacity="1" fill-rule="evenodd"/><path fill="#69cdfa" d="M 24.523438 279.9375 L 42.6875 279.9375 L 42.6875 295.882812 L 24.523438 295.882812 Z M 24.523438 279.9375 " fill-opacity="1" fill-rule="evenodd"/><path fill="#69cdfa" d="M 76.761719 215.742188 L 119.238281 215.742188 L 119.238281 253.03125 L 76.761719 253.03125 Z M 76.761719 215.742188 " fill-opacity="1" fill-rule="evenodd"/><path fill="#d9d9d9" d="M 45.363281 198.386719 L 66.601562 198.386719 L 66.601562 217.03125 L 45.363281 217.03125 Z M 45.363281 198.386719 " fill-opacity="1" fill-rule="evenodd"/><path fill="#69cdfa" d="M 129.980469 241.136719 L 151.21875 241.136719 L 151.21875 259.78125 L 129.980469 259.78125 Z M 129.980469 241.136719 " fill-opacity="1" fill-rule="evenodd"/><path fill="#d9d9d9" d="M 126.324219 196.558594 L 156.714844 196.558594 L 156.714844 223.238281 L 126.324219 223.238281 Z M 126.324219 196.558594 " fill-opacity="1" fill-rule="evenodd"/><path fill="#d9d9d9" d="M 74.09375 164.195312 L 117.273438 164.195312 L 117.273438 202.101562 L 74.09375 202.101562 Z M 74.09375 164.195312 " fill-opacity="1" fill-rule="evenodd"/><g clip-path="url(#7a4caa8c00)"><path fill="#69cdfa" d="M 13.683594 153.582031 L 50.007812 153.582031 L 50.007812 185.472656 L 13.683594 185.472656 Z M 13.683594 153.582031 " fill-opacity="1" fill-rule="evenodd"/></g></svg>